<?xml version="1.0" encoding="utf-8" standalone="no"?>
<!DOCTYPE svg PUBLIC "-//W3C//DTD SVG 1.1//EN"
  "http://www.w3.org/Graphics/SVG/1.1/DTD/svg11.dtd">
<svg xmlns:xlink="http://www.w3.org/1999/xlink" width="460.8pt" height="345.6pt" viewBox="0 0 460.8 345.6" xmlns="http://www.w3.org/2000/svg" version="1.1">
 <metadata>
  <rdf:RDF xmlns:dc="http://purl.org/dc/elements/1.1/" xmlns:cc="http://creativecommons.org/ns#" xmlns:rdf="http://www.w3.org/1999/02/22-rdf-syntax-ns#">
   <cc:Work>
    <dc:type rdf:resource="http://purl.org/dc/dcmitype/StillImage"/>
    <dc:date>2025-04-14T21:54:31.022605</dc:date>
    <dc:format>image/svg+xml</dc:format>
    <dc:creator>
     <cc:Agent>
      <dc:title>Matplotlib v3.9.1, https://matplotlib.org/</dc:title>
     </cc:Agent>
    </dc:creator>
   </cc:Work>
  </rdf:RDF>
 </metadata>
 <defs>
  <style type="text/css">*{stroke-linejoin: round; stroke-linecap: butt}</style>
 </defs>
 <g id="figure_1">
  <g id="patch_1">
   <path d="M 0 345.6 
L 460.8 345.6 
L 460.8 0 
L 0 0 
z
" style="fill: #ffffff"/>
  </g>
  <g id="axes_1">
   <g id="patch_2">
    <path d="M 57.6 307.584 
L 414.72 307.584 
L 414.72 41.472 
L 57.6 41.472 
z
" style="fill: #ffffff"/>
   </g>
   <g id="patch_3">
    <path d="M 77.560112 307.584 
L 80.185427 307.584 
L 80.185427 54.144 
L 77.560112 54.144 
z
" clip-path="url(#p84e9fdddbc)" style="fill: #1f77b4"/>
   </g>
   <g id="patch_4">
    <path d="M 84.123399 307.584 
L 86.748714 307.584 
L 86.748714 307.584 
L 84.123399 307.584 
z
" clip-path="url(#p84e9fdddbc)" style="fill: #1f77b4"/>
   </g>
   <g id="patch_5">
    <path d="M 90.686685 307.584 
L 93.312 307.584 
L 93.312 287.509545 
L 90.686685 287.509545 
z
" clip-path="url(#p84e9fdddbc)" style="fill: #1f77b4"/>
   </g>
   <g id="patch_6">
    <path d="M 97.249972 307.584 
L 99.875286 307.584 
L 99.875286 307.584 
L 97.249972 307.584 
z
" clip-path="url(#p84e9fdddbc)" style="fill: #1f77b4"/>
   </g>
   <g id="patch_7">
    <path d="M 103.813258 307.584 
L 106.438573 307.584 
L 106.438573 307.584 
L 103.813258 307.584 
z
" clip-path="url(#p84e9fdddbc)" style="fill: #1f77b4"/>
   </g>
   <g id="patch_8">
    <path d="M 110.376545 307.584 
L 113.001859 307.584 
L 113.001859 157.025584 
L 110.376545 157.025584 
z
" clip-path="url(#p84e9fdddbc)" style="fill: #1f77b4"/>
   </g>
   <g id="patch_9">
    <path d="M 116.939831 307.584 
L 119.565146 307.584 
L 119.565146 307.584 
L 116.939831 307.584 
z
" clip-path="url(#p84e9fdddbc)" style="fill: #1f77b4"/>
   </g>
   <g id="patch_10">
    <path d="M 123.503118 307.584 
L 126.128432 307.584 
L 126.128432 307.584 
L 123.503118 307.584 
z
" clip-path="url(#p84e9fdddbc)" style="fill: #1f77b4"/>
   </g>
   <g id="patch_11">
    <path d="M 130.066404 307.584 
L 132.691719 307.584 
L 132.691719 307.584 
L 130.066404 307.584 
z
" clip-path="url(#p84e9fdddbc)" style="fill: #1f77b4"/>
   </g>
   <g id="patch_12">
    <path d="M 136.629691 307.584 
L 139.255005 307.584 
L 139.255005 307.584 
L 136.629691 307.584 
z
" clip-path="url(#p84e9fdddbc)" style="fill: #1f77b4"/>
   </g>
   <g id="patch_13">
    <path d="M 143.192977 307.584 
L 145.818292 307.584 
L 145.818292 307.584 
L 143.192977 307.584 
z
" clip-path="url(#p84e9fdddbc)" style="fill: #1f77b4"/>
   </g>
   <g id="patch_14">
    <path d="M 149.756264 307.584 
L 152.381578 307.584 
L 152.381578 305.074693 
L 149.756264 305.074693 
z
" clip-path="url(#p84e9fdddbc)" style="fill: #1f77b4"/>
   </g>
   <g id="patch_15">
    <path d="M 156.31955 307.584 
L 158.944865 307.584 
L 158.944865 307.584 
L 156.31955 307.584 
z
" clip-path="url(#p84e9fdddbc)" style="fill: #1f77b4"/>
   </g>
   <g id="patch_16">
    <path d="M 162.882837 307.584 
L 165.508151 307.584 
L 165.508151 307.584 
L 162.882837 307.584 
z
" clip-path="url(#p84e9fdddbc)" style="fill: #1f77b4"/>
   </g>
   <g id="patch_17">
    <path d="M 169.446123 307.584 
L 172.071438 307.584 
L 172.071438 234.814099 
L 169.446123 234.814099 
z
" clip-path="url(#p84e9fdddbc)" style="fill: #1f77b4"/>
   </g>
   <g id="patch_18">
    <path d="M 176.00941 307.584 
L 178.634724 307.584 
L 178.634724 307.584 
L 176.00941 307.584 
z
" clip-path="url(#p84e9fdddbc)" style="fill: #1f77b4"/>
   </g>
   <g id="patch_19">
    <path d="M 182.572696 307.584 
L 185.198011 307.584 
L 185.198011 307.584 
L 182.572696 307.584 
z
" clip-path="url(#p84e9fdddbc)" style="fill: #1f77b4"/>
   </g>
   <g id="patch_20">
    <path d="M 189.135983 307.584 
L 191.761297 307.584 
L 191.761297 252.379248 
L 189.135983 252.379248 
z
" clip-path="url(#p84e9fdddbc)" style="fill: #1f77b4"/>
   </g>
   <g id="patch_21">
    <path d="M 195.699269 307.584 
L 198.324584 307.584 
L 198.324584 307.584 
L 195.699269 307.584 
z
" clip-path="url(#p84e9fdddbc)" style="fill: #1f77b4"/>
   </g>
   <g id="patch_22">
    <path d="M 202.262556 307.584 
L 204.88787 307.584 
L 204.88787 307.584 
L 202.262556 307.584 
z
" clip-path="url(#p84e9fdddbc)" style="fill: #1f77b4"/>
   </g>
   <g id="patch_23">
    <path d="M 208.825842 307.584 
L 211.451157 307.584 
L 211.451157 307.584 
L 208.825842 307.584 
z
" clip-path="url(#p84e9fdddbc)" style="fill: #1f77b4"/>
   </g>
   <g id="patch_24">
    <path d="M 215.389129 307.584 
L 218.014443 307.584 
L 218.014443 307.584 
L 215.389129 307.584 
z
" clip-path="url(#p84e9fdddbc)" style="fill: #1f77b4"/>
   </g>
   <g id="patch_25">
    <path d="M 221.952415 307.584 
L 224.57773 307.584 
L 224.57773 307.584 
L 221.952415 307.584 
z
" clip-path="url(#p84e9fdddbc)" style="fill: #1f77b4"/>
   </g>
   <g id="patch_26">
    <path d="M 228.515702 307.584 
L 231.141016 307.584 
L 231.141016 292.528158 
L 228.515702 292.528158 
z
" clip-path="url(#p84e9fdddbc)" style="fill: #1f77b4"/>
   </g>
   <g id="patch_27">
    <path d="M 235.078988 307.584 
L 237.704303 307.584 
L 237.704303 307.584 
L 235.078988 307.584 
z
" clip-path="url(#p84e9fdddbc)" style="fill: #1f77b4"/>
   </g>
   <g id="patch_28">
    <path d="M 241.642275 307.584 
L 244.267589 307.584 
L 244.267589 307.584 
L 241.642275 307.584 
z
" clip-path="url(#p84e9fdddbc)" style="fill: #1f77b4"/>
   </g>
   <g id="patch_29">
    <path d="M 248.205561 307.584 
L 250.830876 307.584 
L 250.830876 307.584 
L 248.205561 307.584 
z
" clip-path="url(#p84e9fdddbc)" style="fill: #1f77b4"/>
   </g>
   <g id="patch_30">
    <path d="M 254.768848 307.584 
L 257.394162 307.584 
L 257.394162 307.584 
L 254.768848 307.584 
z
" clip-path="url(#p84e9fdddbc)" style="fill: #1f77b4"/>
   </g>
   <g id="patch_31">
    <path d="M 261.332134 307.584 
L 263.957449 307.584 
L 263.957449 307.584 
L 261.332134 307.584 
z
" clip-path="url(#p84e9fdddbc)" style="fill: #1f77b4"/>
   </g>
   <g id="patch_32">
    <path d="M 267.895421 307.584 
L 270.520735 307.584 
L 270.520735 307.584 
L 267.895421 307.584 
z
" clip-path="url(#p84e9fdddbc)" style="fill: #1f77b4"/>
   </g>
   <g id="patch_33">
    <path d="M 274.458707 307.584 
L 277.084022 307.584 
L 277.084022 307.584 
L 274.458707 307.584 
z
" clip-path="url(#p84e9fdddbc)" style="fill: #1f77b4"/>
   </g>
   <g id="patch_34">
    <path d="M 281.021994 307.584 
L 283.647308 307.584 
L 283.647308 307.584 
L 281.021994 307.584 
z
" clip-path="url(#p84e9fdddbc)" style="fill: #1f77b4"/>
   </g>
   <g id="patch_35">
    <path d="M 287.58528 307.584 
L 290.210595 307.584 
L 290.210595 307.584 
L 287.58528 307.584 
z
" clip-path="url(#p84e9fdddbc)" style="fill: #1f77b4"/>
   </g>
   <g id="patch_36">
    <path d="M 294.148566 307.584 
L 296.773881 307.584 
L 296.773881 307.584 
L 294.148566 307.584 
z
" clip-path="url(#p84e9fdddbc)" style="fill: #1f77b4"/>
   </g>
   <g id="patch_37">
    <path d="M 300.711853 307.584 
L 303.337168 307.584 
L 303.337168 307.584 
L 300.711853 307.584 
z
" clip-path="url(#p84e9fdddbc)" style="fill: #1f77b4"/>
   </g>
   <g id="patch_38">
    <path d="M 307.275139 307.584 
L 309.900454 307.584 
L 309.900454 307.584 
L 307.275139 307.584 
z
" clip-path="url(#p84e9fdddbc)" style="fill: #1f77b4"/>
   </g>
   <g id="patch_39">
    <path d="M 313.838426 307.584 
L 316.463741 307.584 
L 316.463741 307.584 
L 313.838426 307.584 
z
" clip-path="url(#p84e9fdddbc)" style="fill: #1f77b4"/>
   </g>
   <g id="patch_40">
    <path d="M 320.401712 307.584 
L 323.027027 307.584 
L 323.027027 307.584 
L 320.401712 307.584 
z
" clip-path="url(#p84e9fdddbc)" style="fill: #1f77b4"/>
   </g>
   <g id="patch_41">
    <path d="M 326.964999 307.584 
L 329.590314 307.584 
L 329.590314 307.584 
L 326.964999 307.584 
z
" clip-path="url(#p84e9fdddbc)" style="fill: #1f77b4"/>
   </g>
   <g id="patch_42">
    <path d="M 333.528285 307.584 
L 336.1536 307.584 
L 336.1536 307.584 
L 333.528285 307.584 
z
" clip-path="url(#p84e9fdddbc)" style="fill: #1f77b4"/>
   </g>
   <g id="patch_43">
    <path d="M 340.091572 307.584 
L 342.716886 307.584 
L 342.716886 307.584 
L 340.091572 307.584 
z
" clip-path="url(#p84e9fdddbc)" style="fill: #1f77b4"/>
   </g>
   <g id="patch_44">
    <path d="M 346.654858 307.584 
L 349.280173 307.584 
L 349.280173 307.584 
L 346.654858 307.584 
z
" clip-path="url(#p84e9fdddbc)" style="fill: #1f77b4"/>
   </g>
   <g id="patch_45">
    <path d="M 353.218145 307.584 
L 355.843459 307.584 
L 355.843459 307.584 
L 353.218145 307.584 
z
" clip-path="url(#p84e9fdddbc)" style="fill: #1f77b4"/>
   </g>
   <g id="patch_46">
    <path d="M 359.781431 307.584 
L 362.406746 307.584 
L 362.406746 307.584 
L 359.781431 307.584 
z
" clip-path="url(#p84e9fdddbc)" style="fill: #1f77b4"/>
   </g>
   <g id="patch_47">
    <path d="M 366.344718 307.584 
L 368.970032 307.584 
L 368.970032 307.584 
L 366.344718 307.584 
z
" clip-path="url(#p84e9fdddbc)" style="fill: #1f77b4"/>
   </g>
   <g id="patch_48">
    <path d="M 372.908004 307.584 
L 375.533319 307.584 
L 375.533319 307.584 
L 372.908004 307.584 
z
" clip-path="url(#p84e9fdddbc)" style="fill: #1f77b4"/>
   </g>
   <g id="patch_49">
    <path d="M 379.471291 307.584 
L 382.096605 307.584 
L 382.096605 307.584 
L 379.471291 307.584 
z
" clip-path="url(#p84e9fdddbc)" style="fill: #1f77b4"/>
   </g>
   <g id="patch_50">
    <path d="M 386.034577 307.584 
L 388.659892 307.584 
L 388.659892 307.584 
L 386.034577 307.584 
z
" clip-path="url(#p84e9fdddbc)" style="fill: #1f77b4"/>
   </g>
   <g id="patch_51">
    <path d="M 392.597864 307.584 
L 395.223178 307.584 
L 395.223178 307.584 
L 392.597864 307.584 
z
" clip-path="url(#p84e9fdddbc)" style="fill: #1f77b4"/>
   </g>
   <g id="patch_52">
    <path d="M 399.16115 307.584 
L 401.786465 307.584 
L 401.786465 307.584 
L 399.16115 307.584 
z
" clip-path="url(#p84e9fdddbc)" style="fill: #1f77b4"/>
   </g>
   <g id="patch_53">
    <path d="M 80.185427 307.584 
L 82.810742 307.584 
L 82.810742 282.490931 
L 80.185427 282.490931 
z
" clip-path="url(#p84e9fdddbc)" style="fill: #ff7f0e"/>
   </g>
   <g id="patch_54">
    <path d="M 86.748714 307.584 
L 89.374028 307.584 
L 89.374028 307.584 
L 86.748714 307.584 
z
" clip-path="url(#p84e9fdddbc)" style="fill: #ff7f0e"/>
   </g>
   <g id="patch_55">
    <path d="M 93.312 307.584 
L 95.937315 307.584 
L 95.937315 305.074693 
L 93.312 305.074693 
z
" clip-path="url(#p84e9fdddbc)" style="fill: #ff7f0e"/>
   </g>
   <g id="patch_56">
    <path d="M 99.875286 307.584 
L 102.500601 307.584 
L 102.500601 307.584 
L 99.875286 307.584 
z
" clip-path="url(#p84e9fdddbc)" style="fill: #ff7f0e"/>
   </g>
   <g id="patch_57">
    <path d="M 106.438573 307.584 
L 109.063888 307.584 
L 109.063888 307.584 
L 106.438573 307.584 
z
" clip-path="url(#p84e9fdddbc)" style="fill: #ff7f0e"/>
   </g>
   <g id="patch_58">
    <path d="M 113.001859 307.584 
L 115.627174 307.584 
L 115.627174 224.776871 
L 113.001859 224.776871 
z
" clip-path="url(#p84e9fdddbc)" style="fill: #ff7f0e"/>
   </g>
   <g id="patch_59">
    <path d="M 119.565146 307.584 
L 122.190461 307.584 
L 122.190461 307.584 
L 119.565146 307.584 
z
" clip-path="url(#p84e9fdddbc)" style="fill: #ff7f0e"/>
   </g>
   <g id="patch_60">
    <path d="M 126.128432 307.584 
L 128.753747 307.584 
L 128.753747 307.584 
L 126.128432 307.584 
z
" clip-path="url(#p84e9fdddbc)" style="fill: #ff7f0e"/>
   </g>
   <g id="patch_61">
    <path d="M 132.691719 307.584 
L 135.317034 307.584 
L 135.317034 307.584 
L 132.691719 307.584 
z
" clip-path="url(#p84e9fdddbc)" style="fill: #ff7f0e"/>
   </g>
   <g id="patch_62">
    <path d="M 139.255005 307.584 
L 141.88032 307.584 
L 141.88032 307.584 
L 139.255005 307.584 
z
" clip-path="url(#p84e9fdddbc)" style="fill: #ff7f0e"/>
   </g>
   <g id="patch_63">
    <path d="M 145.818292 307.584 
L 148.443606 307.584 
L 148.443606 307.584 
L 145.818292 307.584 
z
" clip-path="url(#p84e9fdddbc)" style="fill: #ff7f0e"/>
   </g>
   <g id="patch_64">
    <path d="M 152.381578 307.584 
L 155.006893 307.584 
L 155.006893 300.056079 
L 152.381578 300.056079 
z
" clip-path="url(#p84e9fdddbc)" style="fill: #ff7f0e"/>
   </g>
   <g id="patch_65">
    <path d="M 158.944865 307.584 
L 161.570179 307.584 
L 161.570179 307.584 
L 158.944865 307.584 
z
" clip-path="url(#p84e9fdddbc)" style="fill: #ff7f0e"/>
   </g>
   <g id="patch_66">
    <path d="M 165.508151 307.584 
L 168.133466 307.584 
L 168.133466 307.584 
L 165.508151 307.584 
z
" clip-path="url(#p84e9fdddbc)" style="fill: #ff7f0e"/>
   </g>
   <g id="patch_67">
    <path d="M 172.071438 307.584 
L 174.696752 307.584 
L 174.696752 279.981624 
L 172.071438 279.981624 
z
" clip-path="url(#p84e9fdddbc)" style="fill: #ff7f0e"/>
   </g>
   <g id="patch_68">
    <path d="M 178.634724 307.584 
L 181.260039 307.584 
L 181.260039 307.584 
L 178.634724 307.584 
z
" clip-path="url(#p84e9fdddbc)" style="fill: #ff7f0e"/>
   </g>
   <g id="patch_69">
    <path d="M 185.198011 307.584 
L 187.823325 307.584 
L 187.823325 307.584 
L 185.198011 307.584 
z
" clip-path="url(#p84e9fdddbc)" style="fill: #ff7f0e"/>
   </g>
   <g id="patch_70">
    <path d="M 191.761297 307.584 
L 194.386612 307.584 
L 194.386612 307.584 
L 191.761297 307.584 
z
" clip-path="url(#p84e9fdddbc)" style="fill: #ff7f0e"/>
   </g>
   <g id="patch_71">
    <path d="M 198.324584 307.584 
L 200.949898 307.584 
L 200.949898 307.584 
L 198.324584 307.584 
z
" clip-path="url(#p84e9fdddbc)" style="fill: #ff7f0e"/>
   </g>
   <g id="patch_72">
    <path d="M 204.88787 307.584 
L 207.513185 307.584 
L 207.513185 307.584 
L 204.88787 307.584 
z
" clip-path="url(#p84e9fdddbc)" style="fill: #ff7f0e"/>
   </g>
   <g id="patch_73">
    <path d="M 211.451157 307.584 
L 214.076471 307.584 
L 214.076471 307.584 
L 211.451157 307.584 
z
" clip-path="url(#p84e9fdddbc)" style="fill: #ff7f0e"/>
   </g>
   <g id="patch_74">
    <path d="M 218.014443 307.584 
L 220.639758 307.584 
L 220.639758 307.584 
L 218.014443 307.584 
z
" clip-path="url(#p84e9fdddbc)" style="fill: #ff7f0e"/>
   </g>
   <g id="patch_75">
    <path d="M 224.57773 307.584 
L 227.203044 307.584 
L 227.203044 307.584 
L 224.57773 307.584 
z
" clip-path="url(#p84e9fdddbc)" style="fill: #ff7f0e"/>
   </g>
   <g id="patch_76">
    <path d="M 231.141016 307.584 
L 233.766331 307.584 
L 233.766331 247.360634 
L 231.141016 247.360634 
z
" clip-path="url(#p84e9fdddbc)" style="fill: #ff7f0e"/>
   </g>
   <g id="patch_77">
    <path d="M 237.704303 307.584 
L 240.329617 307.584 
L 240.329617 307.584 
L 237.704303 307.584 
z
" clip-path="url(#p84e9fdddbc)" style="fill: #ff7f0e"/>
   </g>
   <g id="patch_78">
    <path d="M 244.267589 307.584 
L 246.892904 307.584 
L 246.892904 307.584 
L 244.267589 307.584 
z
" clip-path="url(#p84e9fdddbc)" style="fill: #ff7f0e"/>
   </g>
   <g id="patch_79">
    <path d="M 250.830876 307.584 
L 253.45619 307.584 
L 253.45619 300.056079 
L 250.830876 300.056079 
z
" clip-path="url(#p84e9fdddbc)" style="fill: #ff7f0e"/>
   </g>
   <g id="patch_80">
    <path d="M 257.394162 307.584 
L 260.019477 307.584 
L 260.019477 307.584 
L 257.394162 307.584 
z
" clip-path="url(#p84e9fdddbc)" style="fill: #ff7f0e"/>
   </g>
   <g id="patch_81">
    <path d="M 263.957449 307.584 
L 266.582763 307.584 
L 266.582763 307.584 
L 263.957449 307.584 
z
" clip-path="url(#p84e9fdddbc)" style="fill: #ff7f0e"/>
   </g>
   <g id="patch_82">
    <path d="M 270.520735 307.584 
L 273.14605 307.584 
L 273.14605 307.584 
L 270.520735 307.584 
z
" clip-path="url(#p84e9fdddbc)" style="fill: #ff7f0e"/>
   </g>
   <g id="patch_83">
    <path d="M 277.084022 307.584 
L 279.709336 307.584 
L 279.709336 307.584 
L 277.084022 307.584 
z
" clip-path="url(#p84e9fdddbc)" style="fill: #ff7f0e"/>
   </g>
   <g id="patch_84">
    <path d="M 283.647308 307.584 
L 286.272623 307.584 
L 286.272623 307.584 
L 283.647308 307.584 
z
" clip-path="url(#p84e9fdddbc)" style="fill: #ff7f0e"/>
   </g>
   <g id="patch_85">
    <path d="M 290.210595 307.584 
L 292.835909 307.584 
L 292.835909 111.858059 
L 290.210595 111.858059 
z
" clip-path="url(#p84e9fdddbc)" style="fill: #ff7f0e"/>
   </g>
   <g id="patch_86">
    <path d="M 296.773881 307.584 
L 299.399196 307.584 
L 299.399196 307.584 
L 296.773881 307.584 
z
" clip-path="url(#p84e9fdddbc)" style="fill: #ff7f0e"/>
   </g>
   <g id="patch_87">
    <path d="M 303.337168 307.584 
L 305.962482 307.584 
L 305.962482 307.584 
L 303.337168 307.584 
z
" clip-path="url(#p84e9fdddbc)" style="fill: #ff7f0e"/>
   </g>
   <g id="patch_88">
    <path d="M 309.900454 307.584 
L 312.525769 307.584 
L 312.525769 307.584 
L 309.900454 307.584 
z
" clip-path="url(#p84e9fdddbc)" style="fill: #ff7f0e"/>
   </g>
   <g id="patch_89">
    <path d="M 316.463741 307.584 
L 319.089055 307.584 
L 319.089055 307.584 
L 316.463741 307.584 
z
" clip-path="url(#p84e9fdddbc)" style="fill: #ff7f0e"/>
   </g>
   <g id="patch_90">
    <path d="M 323.027027 307.584 
L 325.652342 307.584 
L 325.652342 307.584 
L 323.027027 307.584 
z
" clip-path="url(#p84e9fdddbc)" style="fill: #ff7f0e"/>
   </g>
   <g id="patch_91">
    <path d="M 329.590314 307.584 
L 332.215628 307.584 
L 332.215628 307.584 
L 329.590314 307.584 
z
" clip-path="url(#p84e9fdddbc)" style="fill: #ff7f0e"/>
   </g>
   <g id="patch_92">
    <path d="M 336.1536 307.584 
L 338.778915 307.584 
L 338.778915 307.584 
L 336.1536 307.584 
z
" clip-path="url(#p84e9fdddbc)" style="fill: #ff7f0e"/>
   </g>
   <g id="patch_93">
    <path d="M 342.716886 307.584 
L 345.342201 307.584 
L 345.342201 307.584 
L 342.716886 307.584 
z
" clip-path="url(#p84e9fdddbc)" style="fill: #ff7f0e"/>
   </g>
   <g id="patch_94">
    <path d="M 349.280173 307.584 
L 351.905488 307.584 
L 351.905488 307.584 
L 349.280173 307.584 
z
" clip-path="url(#p84e9fdddbc)" style="fill: #ff7f0e"/>
   </g>
   <g id="patch_95">
    <path d="M 355.843459 307.584 
L 358.468774 307.584 
L 358.468774 307.584 
L 355.843459 307.584 
z
" clip-path="url(#p84e9fdddbc)" style="fill: #ff7f0e"/>
   </g>
   <g id="patch_96">
    <path d="M 362.406746 307.584 
L 365.032061 307.584 
L 365.032061 307.584 
L 362.406746 307.584 
z
" clip-path="url(#p84e9fdddbc)" style="fill: #ff7f0e"/>
   </g>
   <g id="patch_97">
    <path d="M 368.970032 307.584 
L 371.595347 307.584 
L 371.595347 307.584 
L 368.970032 307.584 
z
" clip-path="url(#p84e9fdddbc)" style="fill: #ff7f0e"/>
   </g>
   <g id="patch_98">
    <path d="M 375.533319 307.584 
L 378.158634 307.584 
L 378.158634 307.584 
L 375.533319 307.584 
z
" clip-path="url(#p84e9fdddbc)" style="fill: #ff7f0e"/>
   </g>
   <g id="patch_99">
    <path d="M 382.096605 307.584 
L 384.72192 307.584 
L 384.72192 307.584 
L 382.096605 307.584 
z
" clip-path="url(#p84e9fdddbc)" style="fill: #ff7f0e"/>
   </g>
   <g id="patch_100">
    <path d="M 388.659892 307.584 
L 391.285206 307.584 
L 391.285206 307.584 
L 388.659892 307.584 
z
" clip-path="url(#p84e9fdddbc)" style="fill: #ff7f0e"/>
   </g>
   <g id="patch_101">
    <path d="M 395.223178 307.584 
L 397.848493 307.584 
L 397.848493 307.584 
L 395.223178 307.584 
z
" clip-path="url(#p84e9fdddbc)" style="fill: #ff7f0e"/>
   </g>
   <g id="patch_102">
    <path d="M 401.786465 307.584 
L 404.411779 307.584 
L 404.411779 305.074693 
L 401.786465 305.074693 
z
" clip-path="url(#p84e9fdddbc)" style="fill: #ff7f0e"/>
   </g>
   <g id="matplotlib.axis_1">
    <g id="xtick_1">
     <g id="line2d_1">
      <defs>
       <path id="m217b452fe4" d="M 0 0 
L 0 3.5 
" style="stroke: #000000; stroke-width: 0.8"/>
      </defs>
      <g>
       <use xlink:href="#m217b452fe4" x="57.6" y="307.584" style="stroke: #000000; stroke-width: 0.8"/>
      </g>
     </g>
     <g id="text_1">
      <!-- 0 -->
      <g transform="translate(53.14625 325.221812) scale(0.14 -0.14)">
       <defs>
        <path id="DejaVuSans-30" d="M 2034 4250 
Q 1547 4250 1301 3770 
Q 1056 3291 1056 2328 
Q 1056 1369 1301 889 
Q 1547 409 2034 409 
Q 2525 409 2770 889 
Q 3016 1369 3016 2328 
Q 3016 3291 2770 3770 
Q 2525 4250 2034 4250 
z
M 2034 4750 
Q 2819 4750 3233 4129 
Q 3647 3509 3647 2328 
Q 3647 1150 3233 529 
Q 2819 -91 2034 -91 
Q 1250 -91 836 529 
Q 422 1150 422 2328 
Q 422 3509 836 4129 
Q 1250 4750 2034 4750 
z
" transform="scale(0.015625)"/>
       </defs>
       <use xlink:href="#DejaVuSans-30"/>
      </g>
     </g>
    </g>
    <g id="xtick_2">
     <g id="line2d_2">
      <g>
       <use xlink:href="#m217b452fe4" x="76.903784" y="307.584" style="stroke: #000000; stroke-width: 0.8"/>
      </g>
     </g>
     <g id="text_2">
      <!-- 1 -->
      <g transform="translate(72.450034 325.221812) scale(0.14 -0.14)">
       <defs>
        <path id="DejaVuSans-31" d="M 794 531 
L 1825 531 
L 1825 4091 
L 703 3866 
L 703 4441 
L 1819 4666 
L 2450 4666 
L 2450 531 
L 3481 531 
L 3481 0 
L 794 0 
L 794 531 
z
" transform="scale(0.015625)"/>
       </defs>
       <use xlink:href="#DejaVuSans-31"/>
      </g>
     </g>
    </g>
    <g id="xtick_3">
     <g id="line2d_3">
      <g>
       <use xlink:href="#m217b452fe4" x="96.207568" y="307.584" style="stroke: #000000; stroke-width: 0.8"/>
      </g>
     </g>
     <g id="text_3">
      <!-- 2 -->
      <g transform="translate(91.753818 325.221812) scale(0.14 -0.14)">
       <defs>
        <path id="DejaVuSans-32" d="M 1228 531 
L 3431 531 
L 3431 0 
L 469 0 
L 469 531 
Q 828 903 1448 1529 
Q 2069 2156 2228 2338 
Q 2531 2678 2651 2914 
Q 2772 3150 2772 3378 
Q 2772 3750 2511 3984 
Q 2250 4219 1831 4219 
Q 1534 4219 1204 4116 
Q 875 4013 500 3803 
L 500 4441 
Q 881 4594 1212 4672 
Q 1544 4750 1819 4750 
Q 2544 4750 2975 4387 
Q 3406 4025 3406 3419 
Q 3406 3131 3298 2873 
Q 3191 2616 2906 2266 
Q 2828 2175 2409 1742 
Q 1991 1309 1228 531 
z
" transform="scale(0.015625)"/>
       </defs>
       <use xlink:href="#DejaVuSans-32"/>
      </g>
     </g>
    </g>
    <g id="xtick_4">
     <g id="line2d_4">
      <g>
       <use xlink:href="#m217b452fe4" x="115.511351" y="307.584" style="stroke: #000000; stroke-width: 0.8"/>
      </g>
     </g>
     <g id="text_4">
      <!-- 3 -->
      <g transform="translate(111.057601 325.221812) scale(0.14 -0.14)">
       <defs>
        <path id="DejaVuSans-33" d="M 2597 2516 
Q 3050 2419 3304 2112 
Q 3559 1806 3559 1356 
Q 3559 666 3084 287 
Q 2609 -91 1734 -91 
Q 1441 -91 1130 -33 
Q 819 25 488 141 
L 488 750 
Q 750 597 1062 519 
Q 1375 441 1716 441 
Q 2309 441 2620 675 
Q 2931 909 2931 1356 
Q 2931 1769 2642 2001 
Q 2353 2234 1838 2234 
L 1294 2234 
L 1294 2753 
L 1863 2753 
Q 2328 2753 2575 2939 
Q 2822 3125 2822 3475 
Q 2822 3834 2567 4026 
Q 2313 4219 1838 4219 
Q 1578 4219 1281 4162 
Q 984 4106 628 3988 
L 628 4550 
Q 988 4650 1302 4700 
Q 1616 4750 1894 4750 
Q 2613 4750 3031 4423 
Q 3450 4097 3450 3541 
Q 3450 3153 3228 2886 
Q 3006 2619 2597 2516 
z
" transform="scale(0.015625)"/>
       </defs>
       <use xlink:href="#DejaVuSans-33"/>
      </g>
     </g>
    </g>
    <g id="xtick_5">
     <g id="line2d_5">
      <g>
       <use xlink:href="#m217b452fe4" x="134.815135" y="307.584" style="stroke: #000000; stroke-width: 0.8"/>
      </g>
     </g>
     <g id="text_5">
      <!-- 4 -->
      <g transform="translate(130.361385 325.221812) scale(0.14 -0.14)">
       <defs>
        <path id="DejaVuSans-34" d="M 2419 4116 
L 825 1625 
L 2419 1625 
L 2419 4116 
z
M 2253 4666 
L 3047 4666 
L 3047 1625 
L 3713 1625 
L 3713 1100 
L 3047 1100 
L 3047 0 
L 2419 0 
L 2419 1100 
L 313 1100 
L 313 1709 
L 2253 4666 
z
" transform="scale(0.015625)"/>
       </defs>
       <use xlink:href="#DejaVuSans-34"/>
      </g>
     </g>
    </g>
    <g id="xtick_6">
     <g id="line2d_6">
      <g>
       <use xlink:href="#m217b452fe4" x="154.118919" y="307.584" style="stroke: #000000; stroke-width: 0.8"/>
      </g>
     </g>
     <g id="text_6">
      <!-- 5 -->
      <g transform="translate(149.665169 325.221812) scale(0.14 -0.14)">
       <defs>
        <path id="DejaVuSans-35" d="M 691 4666 
L 3169 4666 
L 3169 4134 
L 1269 4134 
L 1269 2991 
Q 1406 3038 1543 3061 
Q 1681 3084 1819 3084 
Q 2600 3084 3056 2656 
Q 3513 2228 3513 1497 
Q 3513 744 3044 326 
Q 2575 -91 1722 -91 
Q 1428 -91 1123 -41 
Q 819 9 494 109 
L 494 744 
Q 775 591 1075 516 
Q 1375 441 1709 441 
Q 2250 441 2565 725 
Q 2881 1009 2881 1497 
Q 2881 1984 2565 2268 
Q 2250 2553 1709 2553 
Q 1456 2553 1204 2497 
Q 953 2441 691 2322 
L 691 4666 
z
" transform="scale(0.015625)"/>
       </defs>
       <use xlink:href="#DejaVuSans-35"/>
      </g>
     </g>
    </g>
    <g id="xtick_7">
     <g id="line2d_7">
      <g>
       <use xlink:href="#m217b452fe4" x="173.422703" y="307.584" style="stroke: #000000; stroke-width: 0.8"/>
      </g>
     </g>
     <g id="text_7">
      <!-- 6 -->
      <g transform="translate(168.968953 325.221812) scale(0.14 -0.14)">
       <defs>
        <path id="DejaVuSans-36" d="M 2113 2584 
Q 1688 2584 1439 2293 
Q 1191 2003 1191 1497 
Q 1191 994 1439 701 
Q 1688 409 2113 409 
Q 2538 409 2786 701 
Q 3034 994 3034 1497 
Q 3034 2003 2786 2293 
Q 2538 2584 2113 2584 
z
M 3366 4563 
L 3366 3988 
Q 3128 4100 2886 4159 
Q 2644 4219 2406 4219 
Q 1781 4219 1451 3797 
Q 1122 3375 1075 2522 
Q 1259 2794 1537 2939 
Q 1816 3084 2150 3084 
Q 2853 3084 3261 2657 
Q 3669 2231 3669 1497 
Q 3669 778 3244 343 
Q 2819 -91 2113 -91 
Q 1303 -91 875 529 
Q 447 1150 447 2328 
Q 447 3434 972 4092 
Q 1497 4750 2381 4750 
Q 2619 4750 2861 4703 
Q 3103 4656 3366 4563 
z
" transform="scale(0.015625)"/>
       </defs>
       <use xlink:href="#DejaVuSans-36"/>
      </g>
     </g>
    </g>
    <g id="xtick_8">
     <g id="line2d_8">
      <g>
       <use xlink:href="#m217b452fe4" x="192.726486" y="307.584" style="stroke: #000000; stroke-width: 0.8"/>
      </g>
     </g>
     <g id="text_8">
      <!-- 7 -->
      <g transform="translate(188.272736 325.221812) scale(0.14 -0.14)">
       <defs>
        <path id="DejaVuSans-37" d="M 525 4666 
L 3525 4666 
L 3525 4397 
L 1831 0 
L 1172 0 
L 2766 4134 
L 525 4134 
L 525 4666 
z
" transform="scale(0.015625)"/>
       </defs>
       <use xlink:href="#DejaVuSans-37"/>
      </g>
     </g>
    </g>
    <g id="xtick_9">
     <g id="line2d_9">
      <g>
       <use xlink:href="#m217b452fe4" x="212.03027" y="307.584" style="stroke: #000000; stroke-width: 0.8"/>
      </g>
     </g>
     <g id="text_9">
      <!-- 8 -->
      <g transform="translate(207.57652 325.221812) scale(0.14 -0.14)">
       <defs>
        <path id="DejaVuSans-38" d="M 2034 2216 
Q 1584 2216 1326 1975 
Q 1069 1734 1069 1313 
Q 1069 891 1326 650 
Q 1584 409 2034 409 
Q 2484 409 2743 651 
Q 3003 894 3003 1313 
Q 3003 1734 2745 1975 
Q 2488 2216 2034 2216 
z
M 1403 2484 
Q 997 2584 770 2862 
Q 544 3141 544 3541 
Q 544 4100 942 4425 
Q 1341 4750 2034 4750 
Q 2731 4750 3128 4425 
Q 3525 4100 3525 3541 
Q 3525 3141 3298 2862 
Q 3072 2584 2669 2484 
Q 3125 2378 3379 2068 
Q 3634 1759 3634 1313 
Q 3634 634 3220 271 
Q 2806 -91 2034 -91 
Q 1263 -91 848 271 
Q 434 634 434 1313 
Q 434 1759 690 2068 
Q 947 2378 1403 2484 
z
M 1172 3481 
Q 1172 3119 1398 2916 
Q 1625 2713 2034 2713 
Q 2441 2713 2670 2916 
Q 2900 3119 2900 3481 
Q 2900 3844 2670 4047 
Q 2441 4250 2034 4250 
Q 1625 4250 1398 4047 
Q 1172 3844 1172 3481 
z
" transform="scale(0.015625)"/>
       </defs>
       <use xlink:href="#DejaVuSans-38"/>
      </g>
     </g>
    </g>
    <g id="xtick_10">
     <g id="line2d_10">
      <g>
       <use xlink:href="#m217b452fe4" x="231.334054" y="307.584" style="stroke: #000000; stroke-width: 0.8"/>
      </g>
     </g>
     <g id="text_10">
      <!-- 9 -->
      <g transform="translate(226.880304 325.221812) scale(0.14 -0.14)">
       <defs>
        <path id="DejaVuSans-39" d="M 703 97 
L 703 672 
Q 941 559 1184 500 
Q 1428 441 1663 441 
Q 2288 441 2617 861 
Q 2947 1281 2994 2138 
Q 2813 1869 2534 1725 
Q 2256 1581 1919 1581 
Q 1219 1581 811 2004 
Q 403 2428 403 3163 
Q 403 3881 828 4315 
Q 1253 4750 1959 4750 
Q 2769 4750 3195 4129 
Q 3622 3509 3622 2328 
Q 3622 1225 3098 567 
Q 2575 -91 1691 -91 
Q 1453 -91 1209 -44 
Q 966 3 703 97 
z
M 1959 2075 
Q 2384 2075 2632 2365 
Q 2881 2656 2881 3163 
Q 2881 3666 2632 3958 
Q 2384 4250 1959 4250 
Q 1534 4250 1286 3958 
Q 1038 3666 1038 3163 
Q 1038 2656 1286 2365 
Q 1534 2075 1959 2075 
z
" transform="scale(0.015625)"/>
       </defs>
       <use xlink:href="#DejaVuSans-39"/>
      </g>
     </g>
    </g>
    <g id="xtick_11">
     <g id="line2d_11">
      <g>
       <use xlink:href="#m217b452fe4" x="250.637838" y="307.584" style="stroke: #000000; stroke-width: 0.8"/>
      </g>
     </g>
     <g id="text_11">
      <!-- 10 -->
      <g transform="translate(241.730338 325.221812) scale(0.14 -0.14)">
       <use xlink:href="#DejaVuSans-31"/>
       <use xlink:href="#DejaVuSans-30" x="63.623047"/>
      </g>
     </g>
    </g>
    <g id="xtick_12">
     <g id="line2d_12">
      <g>
       <use xlink:href="#m217b452fe4" x="269.941622" y="307.584" style="stroke: #000000; stroke-width: 0.8"/>
      </g>
     </g>
     <g id="text_12">
      <!-- 11 -->
      <g transform="translate(261.034122 325.221812) scale(0.14 -0.14)">
       <use xlink:href="#DejaVuSans-31"/>
       <use xlink:href="#DejaVuSans-31" x="63.623047"/>
      </g>
     </g>
    </g>
    <g id="xtick_13">
     <g id="line2d_13">
      <g>
       <use xlink:href="#m217b452fe4" x="289.245405" y="307.584" style="stroke: #000000; stroke-width: 0.8"/>
      </g>
     </g>
     <g id="text_13">
      <!-- 12 -->
      <g transform="translate(280.337905 325.221812) scale(0.14 -0.14)">
       <use xlink:href="#DejaVuSans-31"/>
       <use xlink:href="#DejaVuSans-32" x="63.623047"/>
      </g>
     </g>
    </g>
    <g id="xtick_14">
     <g id="line2d_14">
      <g>
       <use xlink:href="#m217b452fe4" x="308.549189" y="307.584" style="stroke: #000000; stroke-width: 0.8"/>
      </g>
     </g>
     <g id="text_14">
      <!-- 13 -->
      <g transform="translate(299.641689 325.221812) scale(0.14 -0.14)">
       <use xlink:href="#DejaVuSans-31"/>
       <use xlink:href="#DejaVuSans-33" x="63.623047"/>
      </g>
     </g>
    </g>
    <g id="xtick_15">
     <g id="line2d_15">
      <g>
       <use xlink:href="#m217b452fe4" x="327.852973" y="307.584" style="stroke: #000000; stroke-width: 0.8"/>
      </g>
     </g>
     <g id="text_15">
      <!-- 14 -->
      <g transform="translate(318.945473 325.221812) scale(0.14 -0.14)">
       <use xlink:href="#DejaVuSans-31"/>
       <use xlink:href="#DejaVuSans-34" x="63.623047"/>
      </g>
     </g>
    </g>
    <g id="xtick_16">
     <g id="line2d_16">
      <g>
       <use xlink:href="#m217b452fe4" x="347.156757" y="307.584" style="stroke: #000000; stroke-width: 0.8"/>
      </g>
     </g>
     <g id="text_16">
      <!-- 15 -->
      <g transform="translate(338.249257 325.221812) scale(0.14 -0.14)">
       <use xlink:href="#DejaVuSans-31"/>
       <use xlink:href="#DejaVuSans-35" x="63.623047"/>
      </g>
     </g>
    </g>
    <g id="xtick_17">
     <g id="line2d_17">
      <g>
       <use xlink:href="#m217b452fe4" x="366.460541" y="307.584" style="stroke: #000000; stroke-width: 0.8"/>
      </g>
     </g>
     <g id="text_17">
      <!-- 16 -->
      <g transform="translate(357.553041 325.221812) scale(0.14 -0.14)">
       <use xlink:href="#DejaVuSans-31"/>
       <use xlink:href="#DejaVuSans-36" x="63.623047"/>
      </g>
     </g>
    </g>
    <g id="xtick_18">
     <g id="line2d_18">
      <g>
       <use xlink:href="#m217b452fe4" x="385.764324" y="307.584" style="stroke: #000000; stroke-width: 0.8"/>
      </g>
     </g>
     <g id="text_18">
      <!-- 17 -->
      <g transform="translate(376.856824 325.221812) scale(0.14 -0.14)">
       <use xlink:href="#DejaVuSans-31"/>
       <use xlink:href="#DejaVuSans-37" x="63.623047"/>
      </g>
     </g>
    </g>
    <g id="xtick_19">
     <g id="line2d_19">
      <g>
       <use xlink:href="#m217b452fe4" x="405.068108" y="307.584" style="stroke: #000000; stroke-width: 0.8"/>
      </g>
     </g>
     <g id="text_19">
      <!-- 18 -->
      <g transform="translate(396.160608 325.221812) scale(0.14 -0.14)">
       <use xlink:href="#DejaVuSans-31"/>
       <use xlink:href="#DejaVuSans-38" x="63.623047"/>
      </g>
     </g>
    </g>
    <g id="text_20">
     <!-- Insertion / deletion SHM length -->
     <g transform="translate(112.195 344.290875) scale(0.16 -0.16)">
      <defs>
       <path id="DejaVuSans-49" d="M 628 4666 
L 1259 4666 
L 1259 0 
L 628 0 
L 628 4666 
z
" transform="scale(0.015625)"/>
       <path id="DejaVuSans-6e" d="M 3513 2113 
L 3513 0 
L 2938 0 
L 2938 2094 
Q 2938 2591 2744 2837 
Q 2550 3084 2163 3084 
Q 1697 3084 1428 2787 
Q 1159 2491 1159 1978 
L 1159 0 
L 581 0 
L 581 3500 
L 1159 3500 
L 1159 2956 
Q 1366 3272 1645 3428 
Q 1925 3584 2291 3584 
Q 2894 3584 3203 3211 
Q 3513 2838 3513 2113 
z
" transform="scale(0.015625)"/>
       <path id="DejaVuSans-73" d="M 2834 3397 
L 2834 2853 
Q 2591 2978 2328 3040 
Q 2066 3103 1784 3103 
Q 1356 3103 1142 2972 
Q 928 2841 928 2578 
Q 928 2378 1081 2264 
Q 1234 2150 1697 2047 
L 1894 2003 
Q 2506 1872 2764 1633 
Q 3022 1394 3022 966 
Q 3022 478 2636 193 
Q 2250 -91 1575 -91 
Q 1294 -91 989 -36 
Q 684 19 347 128 
L 347 722 
Q 666 556 975 473 
Q 1284 391 1588 391 
Q 1994 391 2212 530 
Q 2431 669 2431 922 
Q 2431 1156 2273 1281 
Q 2116 1406 1581 1522 
L 1381 1569 
Q 847 1681 609 1914 
Q 372 2147 372 2553 
Q 372 3047 722 3315 
Q 1072 3584 1716 3584 
Q 2034 3584 2315 3537 
Q 2597 3491 2834 3397 
z
" transform="scale(0.015625)"/>
       <path id="DejaVuSans-65" d="M 3597 1894 
L 3597 1613 
L 953 1613 
Q 991 1019 1311 708 
Q 1631 397 2203 397 
Q 2534 397 2845 478 
Q 3156 559 3463 722 
L 3463 178 
Q 3153 47 2828 -22 
Q 2503 -91 2169 -91 
Q 1331 -91 842 396 
Q 353 884 353 1716 
Q 353 2575 817 3079 
Q 1281 3584 2069 3584 
Q 2775 3584 3186 3129 
Q 3597 2675 3597 1894 
z
M 3022 2063 
Q 3016 2534 2758 2815 
Q 2500 3097 2075 3097 
Q 1594 3097 1305 2825 
Q 1016 2553 972 2059 
L 3022 2063 
z
" transform="scale(0.015625)"/>
       <path id="DejaVuSans-72" d="M 2631 2963 
Q 2534 3019 2420 3045 
Q 2306 3072 2169 3072 
Q 1681 3072 1420 2755 
Q 1159 2438 1159 1844 
L 1159 0 
L 581 0 
L 581 3500 
L 1159 3500 
L 1159 2956 
Q 1341 3275 1631 3429 
Q 1922 3584 2338 3584 
Q 2397 3584 2469 3576 
Q 2541 3569 2628 3553 
L 2631 2963 
z
" transform="scale(0.015625)"/>
       <path id="DejaVuSans-74" d="M 1172 4494 
L 1172 3500 
L 2356 3500 
L 2356 3053 
L 1172 3053 
L 1172 1153 
Q 1172 725 1289 603 
Q 1406 481 1766 481 
L 2356 481 
L 2356 0 
L 1766 0 
Q 1100 0 847 248 
Q 594 497 594 1153 
L 594 3053 
L 172 3053 
L 172 3500 
L 594 3500 
L 594 4494 
L 1172 4494 
z
" transform="scale(0.015625)"/>
       <path id="DejaVuSans-69" d="M 603 3500 
L 1178 3500 
L 1178 0 
L 603 0 
L 603 3500 
z
M 603 4863 
L 1178 4863 
L 1178 4134 
L 603 4134 
L 603 4863 
z
" transform="scale(0.015625)"/>
       <path id="DejaVuSans-6f" d="M 1959 3097 
Q 1497 3097 1228 2736 
Q 959 2375 959 1747 
Q 959 1119 1226 758 
Q 1494 397 1959 397 
Q 2419 397 2687 759 
Q 2956 1122 2956 1747 
Q 2956 2369 2687 2733 
Q 2419 3097 1959 3097 
z
M 1959 3584 
Q 2709 3584 3137 3096 
Q 3566 2609 3566 1747 
Q 3566 888 3137 398 
Q 2709 -91 1959 -91 
Q 1206 -91 779 398 
Q 353 888 353 1747 
Q 353 2609 779 3096 
Q 1206 3584 1959 3584 
z
" transform="scale(0.015625)"/>
       <path id="DejaVuSans-20" transform="scale(0.015625)"/>
       <path id="DejaVuSans-2f" d="M 1625 4666 
L 2156 4666 
L 531 -594 
L 0 -594 
L 1625 4666 
z
" transform="scale(0.015625)"/>
       <path id="DejaVuSans-64" d="M 2906 2969 
L 2906 4863 
L 3481 4863 
L 3481 0 
L 2906 0 
L 2906 525 
Q 2725 213 2448 61 
Q 2172 -91 1784 -91 
Q 1150 -91 751 415 
Q 353 922 353 1747 
Q 353 2572 751 3078 
Q 1150 3584 1784 3584 
Q 2172 3584 2448 3432 
Q 2725 3281 2906 2969 
z
M 947 1747 
Q 947 1113 1208 752 
Q 1469 391 1925 391 
Q 2381 391 2643 752 
Q 2906 1113 2906 1747 
Q 2906 2381 2643 2742 
Q 2381 3103 1925 3103 
Q 1469 3103 1208 2742 
Q 947 2381 947 1747 
z
" transform="scale(0.015625)"/>
       <path id="DejaVuSans-6c" d="M 603 4863 
L 1178 4863 
L 1178 0 
L 603 0 
L 603 4863 
z
" transform="scale(0.015625)"/>
       <path id="DejaVuSans-53" d="M 3425 4513 
L 3425 3897 
Q 3066 4069 2747 4153 
Q 2428 4238 2131 4238 
Q 1616 4238 1336 4038 
Q 1056 3838 1056 3469 
Q 1056 3159 1242 3001 
Q 1428 2844 1947 2747 
L 2328 2669 
Q 3034 2534 3370 2195 
Q 3706 1856 3706 1288 
Q 3706 609 3251 259 
Q 2797 -91 1919 -91 
Q 1588 -91 1214 -16 
Q 841 59 441 206 
L 441 856 
Q 825 641 1194 531 
Q 1563 422 1919 422 
Q 2459 422 2753 634 
Q 3047 847 3047 1241 
Q 3047 1584 2836 1778 
Q 2625 1972 2144 2069 
L 1759 2144 
Q 1053 2284 737 2584 
Q 422 2884 422 3419 
Q 422 4038 858 4394 
Q 1294 4750 2059 4750 
Q 2388 4750 2728 4690 
Q 3069 4631 3425 4513 
z
" transform="scale(0.015625)"/>
       <path id="DejaVuSans-48" d="M 628 4666 
L 1259 4666 
L 1259 2753 
L 3553 2753 
L 3553 4666 
L 4184 4666 
L 4184 0 
L 3553 0 
L 3553 2222 
L 1259 2222 
L 1259 0 
L 628 0 
L 628 4666 
z
" transform="scale(0.015625)"/>
       <path id="DejaVuSans-4d" d="M 628 4666 
L 1569 4666 
L 2759 1491 
L 3956 4666 
L 4897 4666 
L 4897 0 
L 4281 0 
L 4281 4097 
L 3078 897 
L 2444 897 
L 1241 4097 
L 1241 0 
L 628 0 
L 628 4666 
z
" transform="scale(0.015625)"/>
       <path id="DejaVuSans-67" d="M 2906 1791 
Q 2906 2416 2648 2759 
Q 2391 3103 1925 3103 
Q 1463 3103 1205 2759 
Q 947 2416 947 1791 
Q 947 1169 1205 825 
Q 1463 481 1925 481 
Q 2391 481 2648 825 
Q 2906 1169 2906 1791 
z
M 3481 434 
Q 3481 -459 3084 -895 
Q 2688 -1331 1869 -1331 
Q 1566 -1331 1297 -1286 
Q 1028 -1241 775 -1147 
L 775 -588 
Q 1028 -725 1275 -790 
Q 1522 -856 1778 -856 
Q 2344 -856 2625 -561 
Q 2906 -266 2906 331 
L 2906 616 
Q 2728 306 2450 153 
Q 2172 0 1784 0 
Q 1141 0 747 490 
Q 353 981 353 1791 
Q 353 2603 747 3093 
Q 1141 3584 1784 3584 
Q 2172 3584 2450 3431 
Q 2728 3278 2906 2969 
L 2906 3500 
L 3481 3500 
L 3481 434 
z
" transform="scale(0.015625)"/>
       <path id="DejaVuSans-68" d="M 3513 2113 
L 3513 0 
L 2938 0 
L 2938 2094 
Q 2938 2591 2744 2837 
Q 2550 3084 2163 3084 
Q 1697 3084 1428 2787 
Q 1159 2491 1159 1978 
L 1159 0 
L 581 0 
L 581 4863 
L 1159 4863 
L 1159 2956 
Q 1366 3272 1645 3428 
Q 1925 3584 2291 3584 
Q 2894 3584 3203 3211 
Q 3513 2838 3513 2113 
z
" transform="scale(0.015625)"/>
      </defs>
      <use xlink:href="#DejaVuSans-49"/>
      <use xlink:href="#DejaVuSans-6e" x="29.492188"/>
      <use xlink:href="#DejaVuSans-73" x="92.871094"/>
      <use xlink:href="#DejaVuSans-65" x="144.970703"/>
      <use xlink:href="#DejaVuSans-72" x="206.494141"/>
      <use xlink:href="#DejaVuSans-74" x="247.607422"/>
      <use xlink:href="#DejaVuSans-69" x="286.816406"/>
      <use xlink:href="#DejaVuSans-6f" x="314.599609"/>
      <use xlink:href="#DejaVuSans-6e" x="375.78125"/>
      <use xlink:href="#DejaVuSans-20" x="439.160156"/>
      <use xlink:href="#DejaVuSans-2f" x="470.947266"/>
      <use xlink:href="#DejaVuSans-20" x="504.638672"/>
      <use xlink:href="#DejaVuSans-64" x="536.425781"/>
      <use xlink:href="#DejaVuSans-65" x="599.902344"/>
      <use xlink:href="#DejaVuSans-6c" x="661.425781"/>
      <use xlink:href="#DejaVuSans-65" x="689.208984"/>
      <use xlink:href="#DejaVuSans-74" x="750.732422"/>
      <use xlink:href="#DejaVuSans-69" x="789.941406"/>
      <use xlink:href="#DejaVuSans-6f" x="817.724609"/>
      <use xlink:href="#DejaVuSans-6e" x="878.90625"/>
      <use xlink:href="#DejaVuSans-20" x="942.285156"/>
      <use xlink:href="#DejaVuSans-53" x="974.072266"/>
      <use xlink:href="#DejaVuSans-48" x="1037.548828"/>
      <use xlink:href="#DejaVuSans-4d" x="1112.744141"/>
      <use xlink:href="#DejaVuSans-20" x="1199.023438"/>
      <use xlink:href="#DejaVuSans-6c" x="1230.810547"/>
      <use xlink:href="#DejaVuSans-65" x="1258.59375"/>
      <use xlink:href="#DejaVuSans-6e" x="1320.117188"/>
      <use xlink:href="#DejaVuSans-67" x="1383.496094"/>
      <use xlink:href="#DejaVuSans-74" x="1446.972656"/>
      <use xlink:href="#DejaVuSans-68" x="1486.181641"/>
     </g>
    </g>
   </g>
   <g id="matplotlib.axis_2">
    <g id="ytick_1">
     <g id="line2d_20">
      <defs>
       <path id="meb5af8b381" d="M 0 0 
L -3.5 0 
" style="stroke: #000000; stroke-width: 0.8"/>
      </defs>
      <g>
       <use xlink:href="#meb5af8b381" x="57.6" y="307.584" style="stroke: #000000; stroke-width: 0.8"/>
      </g>
     </g>
     <g id="text_21">
      <!-- 0 -->
      <g transform="translate(41.6925 312.902906) scale(0.14 -0.14)">
       <use xlink:href="#DejaVuSans-30"/>
      </g>
     </g>
    </g>
    <g id="ytick_2">
     <g id="line2d_21">
      <g>
       <use xlink:href="#meb5af8b381" x="57.6" y="257.397861" style="stroke: #000000; stroke-width: 0.8"/>
      </g>
     </g>
     <g id="text_22">
      <!-- 20 -->
      <g transform="translate(32.785 262.716768) scale(0.14 -0.14)">
       <use xlink:href="#DejaVuSans-32"/>
       <use xlink:href="#DejaVuSans-30" x="63.623047"/>
      </g>
     </g>
    </g>
    <g id="ytick_3">
     <g id="line2d_22">
      <g>
       <use xlink:href="#meb5af8b381" x="57.6" y="207.211723" style="stroke: #000000; stroke-width: 0.8"/>
      </g>
     </g>
     <g id="text_23">
      <!-- 40 -->
      <g transform="translate(32.785 212.530629) scale(0.14 -0.14)">
       <use xlink:href="#DejaVuSans-34"/>
       <use xlink:href="#DejaVuSans-30" x="63.623047"/>
      </g>
     </g>
    </g>
    <g id="ytick_4">
     <g id="line2d_23">
      <g>
       <use xlink:href="#meb5af8b381" x="57.6" y="157.025584" style="stroke: #000000; stroke-width: 0.8"/>
      </g>
     </g>
     <g id="text_24">
      <!-- 60 -->
      <g transform="translate(32.785 162.34449) scale(0.14 -0.14)">
       <use xlink:href="#DejaVuSans-36"/>
       <use xlink:href="#DejaVuSans-30" x="63.623047"/>
      </g>
     </g>
    </g>
    <g id="ytick_5">
     <g id="line2d_24">
      <g>
       <use xlink:href="#meb5af8b381" x="57.6" y="106.839446" style="stroke: #000000; stroke-width: 0.8"/>
      </g>
     </g>
     <g id="text_25">
      <!-- 80 -->
      <g transform="translate(32.785 112.158352) scale(0.14 -0.14)">
       <use xlink:href="#DejaVuSans-38"/>
       <use xlink:href="#DejaVuSans-30" x="63.623047"/>
      </g>
     </g>
    </g>
    <g id="ytick_6">
     <g id="line2d_25">
      <g>
       <use xlink:href="#meb5af8b381" x="57.6" y="56.653307" style="stroke: #000000; stroke-width: 0.8"/>
      </g>
     </g>
     <g id="text_26">
      <!-- 100 -->
      <g transform="translate(23.8775 61.972213) scale(0.14 -0.14)">
       <use xlink:href="#DejaVuSans-31"/>
       <use xlink:href="#DejaVuSans-30" x="63.623047"/>
       <use xlink:href="#DejaVuSans-30" x="127.246094"/>
      </g>
     </g>
    </g>
    <g id="text_27">
     <!-- # insertion / deletion SHMs -->
     <g transform="translate(16.55 283.72675) rotate(-90) scale(0.16 -0.16)">
      <defs>
       <path id="DejaVuSans-23" d="M 3272 2816 
L 2363 2816 
L 2100 1772 
L 3016 1772 
L 3272 2816 
z
M 2803 4594 
L 2478 3297 
L 3391 3297 
L 3719 4594 
L 4219 4594 
L 3897 3297 
L 4872 3297 
L 4872 2816 
L 3775 2816 
L 3519 1772 
L 4513 1772 
L 4513 1294 
L 3397 1294 
L 3072 0 
L 2572 0 
L 2894 1294 
L 1978 1294 
L 1656 0 
L 1153 0 
L 1478 1294 
L 494 1294 
L 494 1772 
L 1594 1772 
L 1856 2816 
L 850 2816 
L 850 3297 
L 1978 3297 
L 2297 4594 
L 2803 4594 
z
" transform="scale(0.015625)"/>
      </defs>
      <use xlink:href="#DejaVuSans-23"/>
      <use xlink:href="#DejaVuSans-20" x="83.789062"/>
      <use xlink:href="#DejaVuSans-69" x="115.576172"/>
      <use xlink:href="#DejaVuSans-6e" x="143.359375"/>
      <use xlink:href="#DejaVuSans-73" x="206.738281"/>
      <use xlink:href="#DejaVuSans-65" x="258.837891"/>
      <use xlink:href="#DejaVuSans-72" x="320.361328"/>
      <use xlink:href="#DejaVuSans-74" x="361.474609"/>
      <use xlink:href="#DejaVuSans-69" x="400.683594"/>
      <use xlink:href="#DejaVuSans-6f" x="428.466797"/>
      <use xlink:href="#DejaVuSans-6e" x="489.648438"/>
      <use xlink:href="#DejaVuSans-20" x="553.027344"/>
      <use xlink:href="#DejaVuSans-2f" x="584.814453"/>
      <use xlink:href="#DejaVuSans-20" x="618.505859"/>
      <use xlink:href="#DejaVuSans-64" x="650.292969"/>
      <use xlink:href="#DejaVuSans-65" x="713.769531"/>
      <use xlink:href="#DejaVuSans-6c" x="775.292969"/>
      <use xlink:href="#DejaVuSans-65" x="803.076172"/>
      <use xlink:href="#DejaVuSans-74" x="864.599609"/>
      <use xlink:href="#DejaVuSans-69" x="903.808594"/>
      <use xlink:href="#DejaVuSans-6f" x="931.591797"/>
      <use xlink:href="#DejaVuSans-6e" x="992.773438"/>
      <use xlink:href="#DejaVuSans-20" x="1056.152344"/>
      <use xlink:href="#DejaVuSans-53" x="1087.939453"/>
      <use xlink:href="#DejaVuSans-48" x="1151.416016"/>
      <use xlink:href="#DejaVuSans-4d" x="1226.611328"/>
      <use xlink:href="#DejaVuSans-73" x="1312.890625"/>
     </g>
    </g>
   </g>
   <g id="patch_103">
    <path d="M 57.6 307.584 
L 57.6 41.472 
" style="fill: none; stroke: #000000; stroke-width: 0.8; stroke-linejoin: miter; stroke-linecap: square"/>
   </g>
   <g id="patch_104">
    <path d="M 414.72 307.584 
L 414.72 41.472 
" style="fill: none; stroke: #000000; stroke-width: 0.8; stroke-linejoin: miter; stroke-linecap: square"/>
   </g>
   <g id="patch_105">
    <path d="M 57.6 307.584 
L 414.72 307.584 
" style="fill: none; stroke: #000000; stroke-width: 0.8; stroke-linejoin: miter; stroke-linecap: square"/>
   </g>
   <g id="patch_106">
    <path d="M 57.6 41.472 
L 414.72 41.472 
" style="fill: none; stroke: #000000; stroke-width: 0.8; stroke-linejoin: miter; stroke-linecap: square"/>
   </g>
   <g id="legend_1">
    <g id="patch_107">
     <path d="M 112.768594 73.221375 
L 359.551406 73.221375 
Q 362.351406 73.221375 362.351406 70.421375 
L 362.351406 51.272 
Q 362.351406 48.472 359.551406 48.472 
L 112.768594 48.472 
Q 109.968594 48.472 109.968594 51.272 
L 109.968594 70.421375 
Q 109.968594 73.221375 112.768594 73.221375 
z
" style="fill: #ffffff; opacity: 0.8; stroke: #cccccc; stroke-linejoin: miter"/>
    </g>
    <g id="patch_108">
     <path d="M 115.568594 64.709812 
L 143.568594 64.709812 
L 143.568594 54.909813 
L 115.568594 54.909813 
z
" style="fill: #1f77b4"/>
    </g>
    <g id="text_28">
     <!-- Deletions -->
     <g transform="translate(154.768594 64.709812) scale(0.14 -0.14)">
      <defs>
       <path id="DejaVuSans-44" d="M 1259 4147 
L 1259 519 
L 2022 519 
Q 2988 519 3436 956 
Q 3884 1394 3884 2338 
Q 3884 3275 3436 3711 
Q 2988 4147 2022 4147 
L 1259 4147 
z
M 628 4666 
L 1925 4666 
Q 3281 4666 3915 4102 
Q 4550 3538 4550 2338 
Q 4550 1131 3912 565 
Q 3275 0 1925 0 
L 628 0 
L 628 4666 
z
" transform="scale(0.015625)"/>
      </defs>
      <use xlink:href="#DejaVuSans-44"/>
      <use xlink:href="#DejaVuSans-65" x="77.001953"/>
      <use xlink:href="#DejaVuSans-6c" x="138.525391"/>
      <use xlink:href="#DejaVuSans-65" x="166.308594"/>
      <use xlink:href="#DejaVuSans-74" x="227.832031"/>
      <use xlink:href="#DejaVuSans-69" x="267.041016"/>
      <use xlink:href="#DejaVuSans-6f" x="294.824219"/>
      <use xlink:href="#DejaVuSans-6e" x="356.005859"/>
      <use xlink:href="#DejaVuSans-73" x="419.384766"/>
     </g>
    </g>
    <g id="patch_109">
     <path d="M 248.776406 64.709812 
L 276.776406 64.709812 
L 276.776406 54.909813 
L 248.776406 54.909813 
z
" style="fill: #ff7f0e"/>
    </g>
    <g id="text_29">
     <!-- Insertions -->
     <g transform="translate(287.976406 64.709812) scale(0.14 -0.14)">
      <use xlink:href="#DejaVuSans-49"/>
      <use xlink:href="#DejaVuSans-6e" x="29.492188"/>
      <use xlink:href="#DejaVuSans-73" x="92.871094"/>
      <use xlink:href="#DejaVuSans-65" x="144.970703"/>
      <use xlink:href="#DejaVuSans-72" x="206.494141"/>
      <use xlink:href="#DejaVuSans-74" x="247.607422"/>
      <use xlink:href="#DejaVuSans-69" x="286.816406"/>
      <use xlink:href="#DejaVuSans-6f" x="314.599609"/>
      <use xlink:href="#DejaVuSans-6e" x="375.78125"/>
      <use xlink:href="#DejaVuSans-73" x="439.160156"/>
     </g>
    </g>
   </g>
  </g>
 </g>
 <defs>
  <clipPath id="p84e9fdddbc">
   <rect x="57.6" y="41.472" width="357.12" height="266.112"/>
  </clipPath>
 </defs>
</svg>
